<svg width="170" height="56" viewBox="0 0 170 56" fill="none" xmlns="http://www.w3.org/2000/svg">
<path d="M73.8996 11.7998C73.5996 11.7998 73.2996 11.9998 72.9996 12.2998C72.7996 12.5998 72.5996 12.9998 72.5996 13.4998C72.5996 13.9998 72.6996 14.3998 72.9996 14.6998C73.2996 14.9998 73.5996 15.1998 73.8996 15.1998C74.1996 15.1998 74.4996 14.9998 74.7996 14.6998C74.9996 14.3998 75.1996 13.9998 75.1996 13.4998C75.1996 12.9998 75.0996 12.5998 74.7996 12.2998C74.5996 11.9998 74.1996 11.7998 73.8996 11.7998Z" fill="#44B8F1"/>
<path d="M80.6998 11.7998C80.5998 11.7998 80.4998 11.7998 80.2998 11.7998C80.2998 12.2998 80.2998 12.7998 80.2998 13.2998C80.2998 13.8998 80.2998 14.3998 80.2998 14.9998C80.4998 14.9998 80.5998 14.9998 80.7998 14.9998C81.2998 14.9998 81.6998 14.7998 81.8998 14.4998C82.0998 14.1998 82.2998 13.7998 82.2998 13.2998C82.2998 12.7998 82.1998 12.4998 81.8998 12.1998C81.6998 11.9998 81.2998 11.7998 80.6998 11.7998Z" fill="#44B8F1"/>
<path d="M92.2998 11.7998C92.0998 11.7998 91.9998 11.7998 91.7998 11.8998C91.7998 12.2998 91.7998 12.8998 91.7998 13.3998C91.8998 13.3998 91.8998 13.3998 91.9998 13.3998C92.8998 13.3998 93.2998 13.0998 93.2998 12.5998C93.3998 11.9998 92.9998 11.7998 92.2998 11.7998Z" fill="#44B8F1"/>
<path d="M87.7997 11.7998C87.7997 11.8998 87.5997 12.5998 87.1997 13.7998H88.4997C88.0997 12.4998 87.8997 11.8998 87.7997 11.7998Z" fill="#44B8F1"/>
<path d="M54.2997 11.7998C54.2997 11.8998 54.0997 12.5998 53.6997 13.7998H54.9997C54.5997 12.4998 54.3997 11.8998 54.2997 11.7998Z" fill="#44B8F1"/>
<path d="M68.7997 11.7998C68.5997 11.7998 68.3997 11.7998 68.1997 11.7998C68.1997 12.1998 68.1997 12.5998 68.1997 13.1998C68.2997 13.1998 68.3997 13.1998 68.4997 13.1998C69.2997 13.1998 69.5997 12.8998 69.5997 12.3998C69.6997 11.9998 69.3997 11.7998 68.7997 11.7998Z" fill="#44B8F1"/>
<path d="M63.7999 11.7998C63.6999 11.7998 63.5999 11.7998 63.3999 11.7998C63.3999 12.2998 63.3999 12.7998 63.3999 13.2998C63.3999 13.8998 63.3999 14.3998 63.3999 14.9998C63.5999 14.9998 63.6999 14.9998 63.8999 14.9998C64.3999 14.9998 64.7999 14.7998 64.9999 14.4998C65.1999 14.1998 65.3999 13.7998 65.3999 13.2998C65.3999 12.7998 65.2999 12.4998 64.9999 12.1998C64.6999 11.9998 64.2999 11.7998 63.7999 11.7998Z" fill="#44B8F1"/>
<path d="M103.2 11.7998C102.9 11.7998 102.6 11.9998 102.3 12.2998C102.1 12.5998 101.9 12.9998 101.9 13.4998C101.9 13.9998 102 14.3998 102.3 14.6998C102.6 14.9998 102.9 15.1998 103.2 15.1998C103.5 15.1998 103.8 14.9998 104.1 14.6998C104.3 14.3998 104.5 13.9998 104.5 13.4998C104.5 12.9998 104.4 12.5998 104.1 12.2998C103.9 11.9998 103.6 11.7998 103.2 11.7998Z" fill="#44B8F1"/>
<path d="M96.5996 11.7998C96.3996 11.7998 96.2996 11.7998 96.0996 11.8998C96.0996 12.2998 96.0996 12.8998 96.0996 13.3998C96.1996 13.3998 96.1996 13.3998 96.2996 13.3998C97.1996 13.3998 97.5996 13.0998 97.5996 12.5998C97.5996 11.9998 97.2996 11.7998 96.5996 11.7998Z" fill="#44B8F1"/>
<path d="M87.3997 28.3999C86.3997 28.3999 85.4997 28.7999 84.7997 29.4999C84.0997 30.1999 83.6997 31.1999 83.6997 32.3999C83.6997 33.5999 84.0997 34.5999 84.7997 35.2999C85.4997 35.9999 86.3997 36.3999 87.3997 36.3999C88.3997 36.3999 89.2997 35.9999 89.9997 35.2999C90.6997 34.5999 91.0997 33.5999 91.0997 32.3999C91.0997 31.1999 90.6997 30.1999 89.9997 29.4999C89.1997 28.7999 88.2997 28.3999 87.3997 28.3999Z" fill="#44B8F1"/>
<path d="M75.0999 28.3999C74.0999 28.3999 73.1999 28.7999 72.4999 29.4999C71.7999 30.1999 71.3999 31.1999 71.3999 32.3999C71.3999 33.5999 71.7999 34.5999 72.4999 35.2999C73.1999 35.9999 74.0999 36.3999 75.0999 36.3999C76.0999 36.3999 76.9999 35.9999 77.6999 35.2999C78.3999 34.5999 78.7999 33.5999 78.7999 32.3999C78.7999 31.1999 78.3999 30.1999 77.6999 29.4999C76.8999 28.7999 76.0999 28.3999 75.0999 28.3999Z" fill="#44B8F1"/>
<path d="M133.3 23.7002H129.8V29.4002H133.3C134.2 29.4002 134.9 29.1002 135.4 28.5002C135.9 27.9002 136.2 27.2002 136.2 26.5002C136.2 25.8002 135.9 25.1002 135.4 24.5002C134.9 24.0002 134.2 23.7002 133.3 23.7002Z" fill="#44B8F1"/>
<path d="M146.1 33.2002C145.6 33.6002 145.3 34.2002 145.3 34.8002C145.3 35.3002 145.5 35.8002 146 36.1002C146.5 36.4002 147 36.6002 147.6 36.6002C148.5 36.6002 149.3 36.3002 150 35.6002C150.7 35.0002 151.1 34.2002 151.1 33.3002C150.5 32.8002 149.6 32.6002 148.4 32.6002C147.4 32.5002 146.6 32.7002 146.1 33.2002Z" fill="#44B8F1"/>
<path d="M115.9 28.3999C115.1 28.3999 114.4 28.5999 113.9 29.0999C113.3 29.5999 112.9 30.1999 112.7 31.0999H119.2C119.2 30.4999 118.9 29.7999 118.3 29.2999C117.8 28.6999 117 28.3999 115.9 28.3999Z" fill="#44B8F1"/>
<path d="M99.4999 28.3999C98.4999 28.3999 97.6999 28.7999 96.9999 29.4999C96.2999 30.1999 95.8999 31.1999 95.8999 32.3999C95.8999 33.5999 96.2999 34.5999 96.9999 35.2999C97.6999 35.9999 98.4999 36.3999 99.4999 36.3999C100.5 36.3999 101.3 35.9999 102 35.2999C102.7 34.5999 103 33.5999 103 32.2999C103 31.0999 102.7 30.0999 102 29.2999C101.4 28.7999 100.5 28.3999 99.4999 28.3999Z" fill="#44B8F1"/>
<path d="M162.3 0H8.2998C4.1998 0 0.799805 3.3 0.799805 7.5V47.8C0.799805 51.9 4.0998 55.3 8.2998 55.3H162.3C166.4 55.3 169.8 52 169.8 47.8V7.5C169.7 3.4 166.4 0 162.3 0ZM95.1998 11.1H95.7998C95.8998 11.1 96.0998 11.1 96.2998 11.1C96.4998 11.1 96.7998 11.1 96.8998 11.1C97.2998 11.1 97.6998 11.2 97.9998 11.4C98.2998 11.6 98.4998 11.9 98.4998 12.3C98.4998 12.9 98.2998 13.3 97.8998 13.6C97.4998 13.9 96.9998 14 96.3998 14C96.2998 14 96.1998 14 96.1998 14C96.1998 14.4 96.1998 15 96.1998 15.8H95.1998C95.1998 15.1 95.1998 14.3 95.1998 13.4C95.1998 12.5 95.1998 11.8 95.1998 11.1ZM86.4998 13.5C87.0998 12.1 87.2998 11.3 87.2998 11.2H88.5998C88.5998 11.3 88.8998 12.1 89.3998 13.5C89.8998 14.9 90.1998 15.7 90.1998 15.8H88.9998C88.9998 15.6 88.8998 15.2 88.6998 14.5H86.9998C86.7998 15.2 86.6998 15.7 86.6998 15.8H85.5998C85.5998 15.7 85.8998 14.9 86.4998 13.5ZM79.3998 11.1H79.9998C80.0998 11.1 80.2998 11.1 80.4998 11.1C80.6998 11.1 80.7998 11.1 80.8998 11.1C81.7998 11.1 82.3998 11.3 82.7998 11.7C83.1998 12.1 83.3998 12.6 83.3998 13.2C83.3998 13.9 83.1998 14.5 82.7998 15C82.3998 15.5 81.7998 15.8 80.9998 15.8C80.5998 15.8 80.1998 15.8 79.5998 15.8C79.5998 15.1 79.5998 14.3 79.5998 13.4C79.4998 12.5 79.3998 11.7 79.3998 11.1ZM77.1998 11.1H78.1998C78.1998 11.7 78.1998 12.4 78.1998 13.3C78.1998 14.2 78.1998 15 78.1998 15.7H77.1998C77.1998 15 77.1998 14.2 77.1998 13.3C77.1998 12.5 77.1998 11.7 77.1998 11.1ZM72.2998 11.7C72.6998 11.2 73.2998 11 73.8998 11C74.4998 11 74.9998 11.2 75.4998 11.7C75.8998 12.1 76.0998 12.7 76.0998 13.4C76.0998 14.1 75.8998 14.7 75.3998 15.2C74.9998 15.7 74.3998 15.9 73.7998 15.9C73.1998 15.9 72.6998 15.7 72.1998 15.2C71.7998 14.8 71.5998 14.2 71.5998 13.5C71.5998 12.8 71.8998 12.2 72.2998 11.7ZM62.3998 11.1H62.9998C63.0998 11.1 63.2998 11.1 63.4998 11.1C63.6998 11.1 63.7998 11.1 63.8998 11.1C64.7998 11.1 65.3998 11.3 65.7998 11.7C66.1998 12.1 66.3998 12.6 66.3998 13.2C66.3998 13.9 66.1998 14.5 65.7998 15C65.3998 15.5 64.7998 15.8 63.9998 15.8C63.5998 15.8 63.1998 15.8 62.5998 15.8C62.5998 15.1 62.5998 14.3 62.5998 13.4C62.4998 12.5 62.4998 11.7 62.3998 11.1ZM57.3998 11.1H58.4998C58.4998 11.2 58.7998 11.7 59.3998 12.6C59.9998 13.5 60.3998 14.2 60.4998 14.5H60.5998C60.4998 14 60.4998 13.5 60.4998 13.1C60.4998 12.5 60.4998 11.8 60.4998 11.1H61.3998C61.3998 11.7 61.3998 12.4 61.3998 13.3C61.3998 14.2 61.3998 15 61.3998 15.7H60.4998C60.4998 15.6 60.1998 15.1 59.4998 14.2C58.7998 13.2 58.3998 12.6 58.2998 12.2H58.1998C58.2998 12.7 58.2998 13.2 58.2998 13.6C58.2998 14.2 58.2998 14.9 58.2998 15.7H57.3998C57.3998 15 57.4998 14.2 57.4998 13.3C57.3998 12.5 57.3998 11.7 57.3998 11.1ZM52.9998 13.5C53.5998 12.1 53.7998 11.3 53.7998 11.2H55.0998C55.0998 11.3 55.3998 12.1 55.8998 13.5C56.3998 14.9 56.6998 15.7 56.6998 15.8H55.5998C55.5998 15.6 55.4998 15.2 55.2998 14.5H53.6998C53.4998 15.2 53.3998 15.7 53.3998 15.8H52.2998C52.0998 15.7 52.3998 14.9 52.9998 13.5ZM15.4998 11.8C22.6998 15.8 29.8998 19.8 36.9998 23.9C37.2998 24.1 37.2998 24.2 37.0998 24.4C35.4998 26 33.8998 27.6 32.2998 29.2C32.0998 29.4 31.9998 29.5 31.7998 29.2C26.0998 23.4 20.3998 17.6 14.5998 11.7C14.5998 11.7 14.4998 11.6 14.3998 11.5C14.8998 11.6 15.2998 11.7 15.4998 11.8ZM13.2998 47.3C12.6998 46.8 12.4998 46.2 12.4998 45.5C12.4998 42.4 12.4998 39.3 12.4998 36.2C12.4998 34 12.4998 31.8 12.4998 29.6C12.4998 24.4 12.4998 19.1 12.4998 13.9C12.4998 13.3 12.5998 12.7 13.0998 12.2C13.2998 12 13.3998 12 13.5998 12.2C17.0998 15.8 20.6998 19.4 24.1998 23C26.4998 25.3 28.7998 27.7 31.0998 30C31.2998 30.2 31.2998 30.3 31.0998 30.6C25.4998 36.2 19.8998 41.8 14.2998 47.4C13.8998 47.6 13.6998 47.6 13.2998 47.3ZM36.4998 35.9C29.7998 39.6 23.0998 43.2 16.3998 46.9C16.2998 47 16.1998 47.1 16.0998 47.1C21.2998 41.8 26.4998 36.6 31.6998 31.3C31.9998 31 32.1998 31 32.4998 31.3C33.7998 32.7 35.1998 34 36.4998 35.4C36.7998 35.7 36.7998 35.8 36.4998 35.9ZM45.1998 31.1C44.8998 31.3 44.4998 31.5 44.1998 31.7C42.1998 32.8 40.0998 33.9 38.0998 35.1C37.7998 35.3 37.6998 35.2 37.3998 35C35.9998 33.5 34.4998 32 33.0998 30.6C32.8998 30.4 32.8998 30.3 33.0998 30.1C34.7998 28.4 36.4998 26.7 38.1998 25.1C38.3998 24.9 38.4998 24.9 38.7998 25C40.7998 26.1 42.7998 27.2 44.7998 28.4C45.3998 28.7 45.8998 29.2 45.8998 29.9C45.8998 30.3 45.5998 30.8 45.1998 31.1ZM66.3998 36C64.8998 37.6 62.7998 38.4 60.3998 38.4C57.9998 38.4 55.9998 37.6 54.3998 35.9C52.6998 34.3 51.8998 32.2 51.8998 29.8C51.8998 27.4 52.6998 25.3 54.3998 23.7C56.0998 22.1 58.0998 21.2 60.3998 21.2C61.5998 21.2 62.6998 21.4 63.7998 21.9C64.8998 22.4 65.6998 23 66.3998 23.7L64.9998 25.1C63.8998 23.8 62.3998 23.2 60.4998 23.2C58.7998 23.2 57.2998 23.8 55.9998 25C54.6998 26.2 54.0998 27.8 54.0998 29.7C54.0998 31.6 54.6998 33.2 55.9998 34.4C57.2998 35.6 58.7998 36.2 60.4998 36.2C62.2998 36.2 63.8998 35.6 65.0998 34.4C65.8998 33.6 66.3998 32.5 66.4998 31.1H60.4998V29.1H68.4998C68.5998 29.5 68.5998 29.9 68.5998 30.3C68.3998 32.8 67.7998 34.7 66.3998 36ZM68.2998 13.9C68.2998 14.5 68.2998 15.1 68.2998 15.7H67.2998C67.2998 15 67.2998 14.2 67.2998 13.3C67.2998 12.4 67.2998 11.7 67.2998 11.1H67.8998C67.9998 11.1 68.0998 11.1 68.2998 11.1C68.4998 11.1 68.6998 11.1 68.8998 11.1C69.9998 11.1 70.4998 11.5 70.4998 12.2C70.4998 12.8 70.1998 13.2 69.5998 13.4V13.5C69.7998 13.6 69.9998 13.8 70.1998 14.1C70.3998 14.4 70.5998 15 70.8998 15.8H69.8998C69.5998 15 69.3998 14.4 69.2998 14.2C69.1998 14 68.8998 13.9 68.5998 13.9C68.5998 13.9 68.3998 13.9 68.2998 13.9ZM79.1998 36.8C78.0998 37.9 76.6998 38.5 75.0998 38.5C73.3998 38.5 71.9998 37.9 70.9998 36.8C69.8998 35.7 69.3998 34.2 69.3998 32.5C69.3998 30.8 69.8998 29.4 70.9998 28.2C72.0998 27.1 73.4998 26.5 75.0998 26.5C76.7998 26.5 78.1998 27.1 79.1998 28.2C80.2998 29.3 80.7998 30.8 80.7998 32.5C80.8998 34.2 80.2998 35.6 79.1998 36.8ZM91.4998 36.8C90.3998 37.9 88.9998 38.5 87.3998 38.5C85.6998 38.5 84.2998 37.9 83.2998 36.8C82.1998 35.7 81.6998 34.2 81.6998 32.5C81.6998 30.8 82.1998 29.4 83.2998 28.2C84.3998 27.1 85.7998 26.5 87.3998 26.5C89.0998 26.5 90.4998 27.1 91.4998 28.2C92.5998 29.3 93.0998 30.8 93.0998 32.5C93.0998 34.2 92.5998 35.6 91.4998 36.8ZM92.0998 14C91.9998 14 91.8998 14 91.8998 14C91.8998 14.4 91.8998 15 91.8998 15.8H90.8998C90.8998 15.1 90.8998 14.3 90.8998 13.4C90.8998 12.5 90.8998 11.8 90.8998 11.2H91.4998C91.5998 11.2 91.7998 11.2 91.9998 11.2C92.1998 11.2 92.4998 11.2 92.5998 11.2C92.9998 11.2 93.3998 11.3 93.6998 11.5C93.9998 11.7 94.1998 12 94.1998 12.4C94.1998 13 93.9998 13.4 93.5998 13.7C93.1998 13.9 92.6998 14 92.0998 14ZM105.1 37.5C105.1 39.4 104.5 40.9 103.4 41.9C102.3 42.9 100.9 43.4 99.2998 43.4C97.9998 43.4 96.8998 43.1 95.9998 42.4C95.1998 41.7 94.5998 41 94.1998 40.1L96.0998 39.3C96.2998 39.9 96.6998 40.4 97.2998 40.8C97.8998 41.2 98.4998 41.4 99.2998 41.4C100.5 41.4 101.4 41.1 102 40.4C102.7 39.7 103 38.8 103 37.6V36.5C102.6 37 102.1 37.5 101.4 37.9C100.7 38.3 99.9998 38.5 99.0998 38.5C97.5998 38.5 96.3998 37.9 95.2998 36.8C94.1998 35.7 93.6998 34.2 93.6998 32.5C93.6998 30.8 94.1998 29.4 95.2998 28.2C96.3998 27.1 97.5998 26.5 99.0998 26.5C99.8998 26.5 100.7 26.7 101.4 27C102.1 27.4 102.6 27.8 103 28.4H103.1V26.8H105.1V37.5ZM104.8 15.2C104.4 15.7 103.8 15.9 103.2 15.9C102.6 15.9 102.1 15.7 101.6 15.2C101.2 14.8 101 14.2 101 13.5C101 12.8 101.2 12.2 101.7 11.7C102.1 11.2 102.7 11 103.3 11C103.9 11 104.4 11.2 104.9 11.7C105.3 12.1 105.5 12.7 105.5 13.4C105.5 14.1 105.3 14.7 104.8 15.2ZM109.2 38.1H107.1V21.7H109.2V38.1ZM110.3 15.8H109.4C109.4 15.7 109.1 15.2 108.4 14.3C107.7 13.3 107.3 12.7 107.2 12.3H107.1C107.2 12.8 107.2 13.3 107.2 13.7C107.2 14.3 107.2 15 107.2 15.8H106.3C106.3 15.1 106.4 14.3 106.4 13.4C106.4 12.5 106.4 11.8 106.3 11.2H107.4C107.4 11.3 107.7 11.8 108.3 12.7C108.9 13.6 109.3 14.3 109.4 14.6H109.5C109.4 14.1 109.4 13.6 109.4 13.2C109.4 12.6 109.4 11.9 109.4 11.2H110.3C110.3 11.8 110.3 12.5 110.3 13.4C110.2 14.2 110.3 15 110.3 15.8ZM121.4 32.9H112.5C112.6 34 112.9 34.9 113.6 35.6C114.3 36.3 115.1 36.6 116 36.6C117.5 36.6 118.5 36 119.1 34.7L121 35.5C120.6 36.4 120 37.1 119.2 37.7C118.4 38.3 117.3 38.6 116.1 38.6C114.4 38.6 113 38 112 36.9C110.9 35.8 110.4 34.3 110.4 32.6C110.4 31 110.9 29.6 111.9 28.4C112.9 27.2 114.2 26.6 115.9 26.6C117.6 26.6 118.9 27.1 119.9 28.2C120.9 29.3 121.4 30.7 121.4 32.6V32.9ZM136.9 30.1C135.9 31 134.7 31.5 133.3 31.5H129.8V38.1H127.7V21.7H133.3C134.7 21.7 135.9 22.2 136.9 23.1C137.9 24 138.4 25.2 138.4 26.6C138.4 28 137.9 29.1 136.9 30.1ZM141.9 38.1H139.8V21.7H141.9V38.1ZM153.1 38.1H151.1V36.5H151C150.2 37.8 148.9 38.4 147.3 38.4C146.1 38.4 145.1 38.1 144.3 37.4C143.5 36.7 143.1 35.8 143.1 34.7C143.1 33.5 143.6 32.5 144.5 31.8C145.4 31.1 146.6 30.8 148 30.8C149.2 30.8 150.3 31 151 31.5V31.2C151 30.4 150.7 29.7 150.2 29.2C149.6 28.7 148.9 28.5 148.1 28.5C147.5 28.5 146.9 28.6 146.4 28.9C145.9 29.2 145.6 29.6 145.4 30.1L143.5 29.3C143.8 28.6 144.3 28 145 27.4C145.8 26.8 146.8 26.5 148 26.5C149.4 26.5 150.6 26.9 151.6 27.8C152.5 28.6 153 29.8 153 31.4V38.1H153.1ZM157.7 43H155.5L158.1 37.3L153.5 26.8H155.8L159.1 34.9L162.4 26.8H164.7L157.7 43Z" fill="#44B8F1"/>
</svg>
