<svg width="160" height="56" viewBox="0 0 160 56" fill="none" xmlns="http://www.w3.org/2000/svg">
<path d="M21.1998 14H24.1998C24.3998 14 24.5998 13.8 24.5998 13.6C24.5998 13.4 24.3998 13.2 24.1998 13.2H21.1998C20.9998 13.2 20.7998 13.4 20.7998 13.6C20.8998 13.8 20.9998 14 21.1998 14ZM22.6998 40.4C21.7998 40.4 21.0998 41.1 21.0998 42C21.0998 42.9 21.7998 43.6 22.6998 43.6C23.5998 43.6 24.2998 42.9 24.2998 42C24.2998 41.1 23.5998 40.4 22.6998 40.4ZM14.9998 39.1H30.3998V16.4H14.9998V39.1ZM64.2998 31.6C63.5998 31.6 62.8998 31.8 62.2998 32.3C61.6998 32.8 61.2998 33.4 61.0998 34.2C60.9998 34.6 60.9998 34.9 60.9998 35.1V37.3C60.9998 38.3 61.2998 39.1 61.8998 39.8C62.4998 40.5 63.2998 40.8 64.1998 40.8C65.2998 40.8 66.1998 40.4 66.7998 39.5C67.3998 38.6 67.6998 37.5 67.6998 36.1C67.6998 34.8 67.3998 33.7 66.7998 32.9C66.2998 32 65.3998 31.6 64.2998 31.6ZM118.3 31.4C117.1 31.4 116.2 31.9 115.6 33C115.1 33.9 114.8 34.9 114.8 36.2C114.8 37.4 115.1 38.5 115.6 39.3C116.2 40.4 117.1 40.9 118.3 40.9C119.4 40.9 120.3 40.4 120.9 39.3C121.5 38.4 121.7 37.4 121.7 36.1C121.7 34.8 121.4 33.8 120.9 33C120.3 31.9 119.4 31.4 118.3 31.4ZM78.9998 31.6C78.2998 31.6 77.5998 31.8 76.9998 32.3C76.3998 32.8 75.9998 33.4 75.7998 34.2C75.6998 34.6 75.6998 34.9 75.6998 35.1V37.3C75.6998 38.3 75.9998 39.1 76.5998 39.8C77.1998 40.5 77.9998 40.8 78.8998 40.8C79.9998 40.8 80.8998 40.4 81.4998 39.5C82.0998 38.6 82.3998 37.5 82.3998 36.1C82.3998 34.8 82.0998 33.7 81.4998 32.9C80.8998 32 79.9998 31.6 78.9998 31.6ZM48.3998 26.8C48.1998 27.6 47.8998 28.7 47.4998 30.3L45.9998 35.1H50.9998L49.3998 30.3C49.1998 29.8 48.8998 28.6 48.3998 26.8ZM140.7 31.3C139.7 31.3 139 31.7 138.3 32.5C137.8 33.1 137.5 33.9 137.4 34.8H143.6C143.6 33.9 143.4 33.2 143 32.5C142.5 31.7 141.7 31.3 140.7 31.3ZM61.4998 18.1C61.4998 18 61.4998 17.8 61.4998 17.7V16.8C60.2998 16.8 59.0998 17 59.0998 18.1C59.0998 18.8 59.4998 19.1 60.0998 19.1C60.7998 19.1 61.2998 18.6 61.4998 18.1ZM45.2998 13.8C45.0998 13.2 44.9998 12.6 44.7998 12C44.6998 12.5 44.4998 13.2 44.2998 13.8L43.5998 16.1H45.9998L45.2998 13.8ZM152.7 0H6.99981C3.29981 0 0.299805 3 0.299805 6.7V48.6C0.299805 52.3 3.29981 55.3 6.99981 55.3H152.7C156.4 55.3 159.4 52.3 159.4 48.6V6.7C159.4 3 156.4 0 152.7 0ZM143.4 13.1C145.6 13.1 146.4 14.9 146.4 16.4C146.4 16.7 146.4 17 146.3 17.1H141.7C141.7 18.3 142.7 18.9 143.8 18.9C144.6 18.9 145.2 18.8 145.7 18.6L146 19.8C145.4 20.1 144.6 20.2 143.6 20.2C141.4 20.2 140.1 18.8 140.1 16.7C140.1 14.9 141.2 13.1 143.4 13.1ZM116 13.3L116.1 14.3C116.4 13.8 117.2 13.1 118.3 13.1C119.5 13.1 120.7 13.9 120.7 16V20.1H119V16.2C119 15.2 118.6 14.5 117.7 14.5C117 14.5 116.5 15 116.3 15.5C116.2 15.6 116.2 15.9 116.2 16V20H114.5V15.2C114.5 14.4 114.5 13.8 114.4 13.2H116V13.3ZM97.7998 13.1C99.9998 13.1 100.8 14.9 100.8 16.4C100.8 16.7 100.8 17 100.7 17.1H96.0998C96.0998 18.3 97.0998 18.9 98.1998 18.9C98.9998 18.9 99.5998 18.8 100.1 18.6L100.4 19.8C99.7998 20.1 98.9998 20.2 97.9998 20.2C95.7998 20.2 94.4998 18.8 94.4998 16.7C94.3998 14.9 95.5998 13.1 97.7998 13.1ZM90.6998 10.2H92.3998V20.2H90.6998V10.2ZM76.9998 14.4C76.2998 14.4 75.5998 14.6 75.1998 14.9L74.8998 13.8C75.3998 13.5 76.2998 13.2 77.3998 13.2C79.5998 13.2 80.1998 14.6 80.1998 16.1V18.6C80.1998 19.2 80.1998 19.8 80.2998 20.2H78.6998L78.5998 19.4C78.1998 19.9 77.4998 20.3 76.5998 20.3C75.1998 20.3 74.3998 19.3 74.3998 18.3C74.3998 16.6 75.8998 15.7 78.4998 15.7V15.6C78.3998 15.1 78.1998 14.4 76.9998 14.4ZM66.6998 10.4C67.2998 10.4 67.6998 10.8 67.6998 11.3C67.6998 11.8 67.2998 12.2 66.6998 12.2C66.0998 12.2 65.6998 11.8 65.6998 11.3C65.7998 10.9 66.1998 10.4 66.6998 10.4ZM67.5998 13.3V20.2H65.8998V13.3H67.5998ZM43.7998 10.7H45.9998L49.0998 20.2H47.1998L46.2998 17.5H43.2998L42.4998 20.2H40.6998L43.7998 10.7ZM32.2998 42.1C32.2998 43.8 30.8998 45.1 29.2998 45.1H16.2998C14.5998 45.1 13.2998 43.7 13.2998 42.1V13.2C13.2998 11.5 14.6998 10.2 16.2998 10.2H29.2998C30.9998 10.2 32.2998 11.6 32.2998 13.2V42.1ZM53.1998 42.8L51.4998 37.4H45.4998L43.8998 42.8H40.7998L46.6998 24.4H50.3998L56.3998 42.8H53.1998ZM53.7998 20.2H52.0998L49.5998 13.3H51.4998L52.5998 16.8C52.7998 17.4 52.8998 18 53.0998 18.5C53.1998 17.9 53.3998 17.4 53.5998 16.8L54.6998 13.3H56.4998L53.7998 20.2ZM57.3998 18.3C57.3998 16.6 58.8998 15.7 61.4998 15.7V15.6C61.4998 15.1 61.2998 14.4 60.0998 14.4C59.3998 14.4 58.6998 14.6 58.2998 14.9L57.9998 13.8C58.4998 13.5 59.3998 13.2 60.4998 13.2C62.6998 13.2 63.2998 14.6 63.2998 16.1V18.6C63.2998 19.2 63.2998 19.8 63.3998 20.2H61.7998L61.6998 19.4C61.2998 19.9 60.5998 20.3 59.6998 20.3C58.1998 20.3 57.3998 19.3 57.3998 18.3ZM68.9998 41.4C67.8998 42.6 66.4998 43.1 64.8998 43.1C63.0998 43.1 61.8998 42.5 61.0998 41.2V48.2H58.0998V33.9C58.0998 32.5 58.0998 31 57.9998 29.5H60.5998L60.7998 31.6H60.8998C61.8998 30 63.3998 29.2 65.3998 29.2C66.9998 29.2 68.2998 29.8 69.2998 31.1C70.2998 32.3 70.8998 34 70.8998 36C70.7998 38.3 70.1998 40 68.9998 41.4ZM71.9998 20.2H70.2998V10.2H71.9998V20.2ZM83.5998 41.4C82.4998 42.6 81.0998 43.1 79.4998 43.1C77.6998 43.1 76.4998 42.5 75.6998 41.2V48.2H72.6998V33.9C72.6998 32.5 72.6998 31 72.5998 29.5H75.1998L75.3998 31.6H75.4998C76.4998 30 77.9998 29.2 79.9998 29.2C81.5998 29.2 82.8998 29.8 83.8998 31.1C84.9998 32.3 85.4998 34 85.4998 36C85.3998 38.3 84.7998 40 83.5998 41.4ZM85.5998 20.3C84.6998 20.3 83.8998 20 83.3998 19.1L83.2998 20.1H81.7998C81.7998 19.6 81.8998 18.9 81.8998 18.2V10.1H83.5998V14.2C83.9998 13.5 84.7998 13.1 85.7998 13.1C87.4998 13.1 88.6998 14.5 88.6998 16.6C88.6998 19.1 87.1998 20.3 85.5998 20.3ZM100.5 41.5C99.2998 42.6 97.5998 43.1 95.4998 43.1C93.4998 43.1 91.8998 42.7 90.6998 42L91.3998 39.5C92.6998 40.3 94.0998 40.6 95.6998 40.6C96.7998 40.6 97.6998 40.3 98.2998 39.8C98.8998 39.3 99.1998 38.6 99.1998 37.8C99.1998 37.1 98.8998 36.4 98.3998 35.9C97.8998 35.4 96.9998 34.9 95.8998 34.5C92.6998 33.3 91.0998 31.5 91.0998 29.2C91.0998 27.7 91.6998 26.4 92.7998 25.5C93.8998 24.5 95.4998 24.1 97.2998 24.1C98.9998 24.1 100.4 24.4 101.5 25L100.8 27.4C99.7998 26.8 98.5998 26.6 97.2998 26.6C96.2998 26.6 95.3998 26.9 94.8998 27.4C94.3998 27.9 94.1998 28.4 94.1998 29.1C94.1998 29.8 94.4998 30.4 94.9998 30.9C95.4998 31.3 96.3998 31.8 97.6998 32.3C99.2998 32.9 100.5 33.7 101.2 34.5C101.9 35.4 102.3 36.4 102.3 37.7C102.1 39.2 101.6 40.5 100.5 41.5ZM110.9 31.7H107.6V38.2C107.6 39.8 108.2 40.7 109.3 40.7C109.8 40.7 110.3 40.7 110.6 40.6L110.7 42.8C110.1 43 109.4 43.1 108.4 43.1C107.2 43.1 106.3 42.7 105.7 42C105 41.3 104.7 40.1 104.7 38.4V31.7H102.8V29.5H104.7V27.1L107.6 26.2V29.5H110.9V31.7ZM109.2 20.3C107.3 20.3 105.8 19 105.8 16.8C105.8 14.5 107.3 13.2 109.3 13.2C111.3 13.2 112.7 14.6 112.7 16.7C112.8 19.2 111 20.3 109.2 20.3ZM123 41.1C121.8 42.4 120.1 43.1 118.1 43.1C116.1 43.1 114.6 42.5 113.4 41.2C112.2 39.9 111.7 38.3 111.7 36.3C111.7 34.2 112.3 32.5 113.5 31.2C114.7 29.9 116.3 29.2 118.3 29.2C120.3 29.2 121.8 29.8 123 31.1C124.1 32.4 124.7 34 124.7 36C124.8 38.1 124.2 39.8 123 41.1ZM126.1 13.3H127.1V12L128.8 11.5V13.3H130.4V14.6H128.8V17.6C128.8 18.4 129 18.9 129.7 18.9C130 18.9 130.2 18.9 130.4 18.8V20.1C130.1 20.2 129.7 20.3 129.1 20.3C128.5 20.3 127.9 20.1 127.6 19.7C127.2 19.3 127.1 18.7 127.1 17.8V14.6H126.1V13.3ZM133.7 32.1C133.4 32 133.1 32 132.8 32C131.8 32 131 32.4 130.4 33.2C129.9 33.9 129.7 34.8 129.7 35.8V42.8H126.7V33.7C126.7 32.2 126.7 30.8 126.6 29.5H129.2L129.3 32H129.4C129.7 31.1 130.2 30.4 130.9 29.9C131.6 29.4 132.3 29.2 133 29.2C133.3 29.2 133.5 29.2 133.7 29.2V32.1ZM134.1 16V20.1H132.4V10.1H134.1V14.2C134.3 13.9 134.6 13.6 135 13.4C135.4 13.2 135.8 13.1 136.2 13.1C137.4 13.1 138.6 13.9 138.6 16.1V20.1H136.9V16.2C136.9 15.2 136.5 14.5 135.6 14.5C134.9 14.5 134.4 15 134.2 15.5C134.1 15.7 134.1 15.9 134.1 16ZM146.3 36.9H137.4C137.4 38.2 137.9 39.2 138.7 39.9C139.4 40.5 140.4 40.8 141.6 40.8C142.9 40.8 144.1 40.6 145.2 40.2L145.7 42.3C144.4 42.9 143 43.1 141.2 43.1C139.1 43.1 137.5 42.5 136.3 41.3C135.1 40.1 134.5 38.5 134.5 36.4C134.5 34.4 135.1 32.7 136.1 31.4C137.3 30 138.8 29.3 140.8 29.3C142.7 29.3 144.2 30 145.2 31.4C146 32.5 146.4 33.9 146.4 35.6C146.4 36.1 146.4 36.5 146.3 36.9ZM85.1998 14.5C84.4998 14.5 83.7998 15 83.6998 15.8C83.6998 15.9 83.5998 16.1 83.5998 16.3V17.4C83.5998 17.5 83.5998 17.7 83.5998 17.8C83.7998 18.5 84.3998 19 85.0998 19C86.1998 19 86.7998 18.1 86.7998 16.7C86.9998 15.5 86.3998 14.5 85.1998 14.5ZM97.6998 14.3C96.5998 14.3 96.1998 15.3 96.0998 16H99.0998C99.0998 15.4 98.7998 14.3 97.6998 14.3ZM109.3 14.4C108.1 14.4 107.6 15.6 107.6 16.7C107.6 18 108.3 19 109.3 19C110.3 19 111 18 111 16.7C111 15.6 110.5 14.4 109.3 14.4ZM75.9998 18.1C75.9998 18.8 76.3998 19.1 76.9998 19.1C77.6998 19.1 78.1998 18.6 78.3998 18.2C78.3998 18.1 78.3998 17.9 78.3998 17.8V16.9C77.1998 16.8 75.9998 17 75.9998 18.1ZM143.3 14.3C142.2 14.3 141.8 15.3 141.7 16H144.7C144.8 15.4 144.5 14.3 143.3 14.3Z" fill="#44B8F1"/>
</svg>
