<svg width="70" height="80" viewBox="0 0 59 59" fill="none" xmlns="http://www.w3.org/2000/svg">
<g clip-path="url(#clip0)">
<path d="M44.7299 47.9307C45.306 49.066 44.8532 50.4529 43.7184 51.0295C39.3886 53.2284 34.4718 54.3906 29.4987 54.3906C25.5253 54.3906 21.6817 53.6772 18.0585 52.2687L3.23289 58.8042C2.93401 58.9361 2.61756 59 2.30382 59C1.71639 59 1.13797 58.7754 0.699088 58.35C0.0256875 57.6969 -0.184975 56.7012 0.16658 55.8315L5.39984 42.887C1.86089 38.2871 -0.00132055 32.8909 -0.00132055 27.1953C-0.00132055 19.8923 3.09335 13.0381 8.71283 7.89491C14.2751 2.80389 21.6569 0 29.4987 0C29.7863 0 30.078 0.0040512 30.3661 0.0117034C31.6386 0.0450134 32.6429 1.10418 32.6091 2.37626C32.5754 3.64879 31.5207 4.65619 30.2446 4.61928C29.9965 4.61253 29.7454 4.60938 29.4987 4.60938C15.7741 4.60938 4.60806 14.7414 4.60806 27.1953C4.60806 32.2404 6.40319 37.0132 9.799 40.9973C10.3558 41.6509 10.5035 42.5597 10.1816 43.356L6.56704 52.2971L17.0934 47.6571C17.6768 47.3996 18.3408 47.3955 18.9273 47.6458C22.2484 49.0628 25.8049 49.7812 29.4987 49.7812C33.7498 49.7812 37.945 48.7919 41.6312 46.9197C42.7659 46.3431 44.1533 46.796 44.7299 47.9307ZM56.694 24.8906C56.694 24.8906 54.3893 25.9223 54.3893 27.1953C54.3893 31.4837 53.0583 35.6565 50.5407 39.2621C49.8119 40.3055 50.0671 41.7423 51.111 42.4711C51.5125 42.752 51.9725 42.8865 52.4285 42.8865C53.1559 42.8865 53.8717 42.5426 54.32 41.9007C57.3809 37.5173 58.9987 32.4322 58.9987 27.1953C58.9987 25.9223 56.694 24.8906 56.694 24.8906Z" fill="#C4C4C4"/>
<g clip-path="url(#clip1)">
<path fill-rule="evenodd" clip-rule="evenodd" d="M58.919 11.5565C58.8778 11.191 58.4517 10.9164 58.0832 10.9164C56.8919 10.9164 55.8347 10.2169 55.3914 9.13503C54.9384 8.02698 55.2305 6.73474 56.1184 5.9203C56.3978 5.66481 56.4318 5.23713 56.1974 4.94004C55.5877 4.16575 54.8946 3.46633 54.1379 2.86016C53.8416 2.62238 53.4069 2.65546 53.1499 2.93997C52.3751 3.79814 50.9832 4.11709 49.9076 3.66832C48.7884 3.19749 48.0826 2.06332 48.1516 0.845865C48.1744 0.463457 47.8949 0.130965 47.5137 0.0865622C46.5426 -0.0257515 45.563 -0.0292341 44.589 0.0788231C44.2121 0.120421 43.9327 0.445076 43.9453 0.822648C43.9877 2.02811 43.2734 3.14244 42.1653 3.59634C41.1026 4.03041 39.7205 3.71417 38.9471 2.86364C38.6916 2.58349 38.2639 2.54905 37.9661 2.78112C37.187 3.39242 36.4784 4.09242 35.863 4.86033C35.623 5.15887 35.6583 5.59158 35.9406 5.84842C36.8454 6.6678 37.1375 7.97126 36.6675 9.09207C36.2187 10.1606 35.1091 10.8493 33.8389 10.8493C33.4266 10.8361 33.133 11.1128 33.088 11.4875C32.9736 12.4642 32.9723 13.4593 33.0824 14.444C33.1232 14.811 33.5623 15.0832 33.9348 15.0832C35.0669 15.0543 36.1537 15.7552 36.6096 16.8646C37.0641 17.9727 36.772 19.2642 35.8827 20.0793C35.6046 20.3348 35.5693 20.7618 35.8037 21.0589C36.4077 21.8282 37.1009 22.5283 37.8603 23.1395C38.1581 23.3795 38.5915 23.3457 38.8497 23.0612C39.6275 22.2009 41.0193 21.8825 42.0906 22.3321C43.2126 22.8015 43.9185 23.9356 43.8494 25.1537C43.8268 25.5363 44.1077 25.8694 44.4874 25.9131C44.9841 25.9711 45.4839 26 45.985 26C46.4606 26 46.9364 25.9739 47.4121 25.9209C47.7891 25.8794 48.0684 25.5547 48.0557 25.1764C48.012 23.9717 48.7276 22.8573 49.8343 22.4042C50.9042 21.9672 52.2805 22.2871 53.0539 23.1367C53.3109 23.4163 53.7356 23.45 54.035 23.2187C54.8127 22.6089 55.5198 21.9095 56.1381 21.1394C56.378 20.8416 56.3442 20.4082 56.0604 20.1514C55.1556 19.3321 54.862 18.0284 55.3321 16.9084C55.774 15.854 56.8424 15.1461 57.9915 15.1461L58.1523 15.1502C58.525 15.1805 58.868 14.8934 58.9132 14.5129C59.0277 13.5354 59.029 12.5411 58.919 11.5565ZM46.0213 17.3637C43.6301 17.3637 41.685 15.4187 41.685 13.0275C41.685 10.6364 43.6301 8.69128 46.0213 8.69128C48.4124 8.69128 50.3574 10.6364 50.3574 13.0275C50.3574 15.4187 48.4124 17.3637 46.0213 17.3637Z" fill="#00988A"/>
</g>
</g>
<defs>
<clipPath id="clip0">
<rect width="59" height="59" fill="white"/>
</clipPath>
<clipPath id="clip1">
<rect width="26" height="26" fill="white" transform="translate(33)"/>
</clipPath>
</defs>
</svg>
