<svg width="232" height="28" viewBox="0 0 232 28" fill="none" xmlns="http://www.w3.org/2000/svg">
<g clip-path="url(#clip0)">
<path fill-rule="evenodd" clip-rule="evenodd" d="M224.369 9.3085V13.0319H232V15.1915H224.369V18.9149H232V21.0745H221.655V7.14893H232V9.3085H224.369ZM198.983 7.6702C199.79 7.89361 200.524 8.26595 201.111 8.63829C201.771 8.93616 202.285 9.38297 202.651 10.0532C203.092 10.5745 203.385 11.2447 203.532 11.9149C203.825 12.5851 203.972 13.3298 203.972 14.1489C203.972 14.8936 203.825 15.5638 203.605 16.234C203.385 16.9042 203.165 17.5 202.872 18.0213C202.505 18.5425 201.991 18.9894 201.551 19.4362C200.964 19.883 200.304 20.2553 199.57 20.4787C198.91 20.7021 198.176 20.8511 197.442 20.9255C196.562 21.0745 195.681 21.1489 194.654 21.1489H191.132V18.9894L194.947 19.0638C196.562 19.0638 197.809 18.8404 198.616 18.4681C199.423 18.0957 200.01 17.5 200.377 16.9042C200.817 16.1596 201.037 15.2659 201.037 14.1489C201.037 13.6276 200.964 13.1064 200.817 12.6596C200.67 12.2128 200.524 11.8404 200.23 11.4681C199.937 11.0957 199.643 10.7234 199.276 10.4255C198.983 10.2021 198.543 9.97871 198.102 9.82978C197.736 9.68084 197.295 9.5319 196.782 9.38297C196.268 9.38297 195.681 9.38297 195.094 9.38297H193.847V17.4255H191.132V7.14893H195.094C195.388 7.14893 195.755 7.14893 196.121 7.14893C196.488 7.22339 196.855 7.29786 197.222 7.37233C197.515 7.37233 197.882 7.4468 198.176 7.52127C198.543 7.52127 198.763 7.59573 198.983 7.6702ZM164.645 10.5C164.132 11.9149 163.691 13.1808 163.324 14.1489L162.737 15.3404H166.553L166.039 14.1489C165.672 13.1808 165.232 11.9149 164.719 10.5H164.645ZM165.892 7.14893L171.836 21H168.974L167.507 17.4255H161.857L160.39 21H157.455L163.471 7.14893H165.892ZM130.087 13.6276H131.481C132.142 13.6276 132.655 13.6276 133.022 13.4787C133.462 13.4042 133.829 13.3298 134.123 13.1808C134.71 13.0319 135.15 12.8085 135.297 12.5106C135.517 12.1383 135.59 11.6915 135.59 11.3191C135.59 10.9468 135.517 10.5745 135.37 10.2766C135.15 10.0532 134.856 9.82978 134.49 9.60637C134.196 9.45744 133.903 9.38297 133.536 9.23403C133.169 9.23403 132.655 9.23403 132.068 9.23403H130.087V13.6276ZM131.995 7.14893C132.729 7.14893 133.389 7.22339 134.049 7.37233C134.71 7.37233 135.223 7.4468 135.737 7.6702C136.617 7.89361 137.278 8.41488 137.791 9.01063C138.231 9.60637 138.452 10.3511 138.452 11.3191C138.452 12.2872 138.158 13.1064 137.571 13.7766C136.984 14.4468 136.104 14.9681 134.93 15.2659V15.3404L139.332 21H136.177L132.068 15.6383H130.234V21H127.519V7.14893H131.995ZM95.7495 9.3085V7.14893H108.076V9.3085H95.7495ZM100.592 10.5H103.307V21H100.592V10.5Z" fill="white"/>
<path fill-rule="evenodd" clip-rule="evenodd" d="M13.9405 5.58511C13.7937 5.58511 13.7203 5.58511 13.647 5.58511C11.4458 5.73404 9.53817 6.55319 7.92401 8.11702C7.70389 8.26596 7.55715 8.48936 7.41041 8.6383C5.94298 10.2021 5.20927 12.0638 5.1359 14.2234C5.06253 16.383 5.72287 18.2447 7.11692 19.8085C7.26366 20.0319 7.41041 20.1809 7.55715 20.3298C7.55715 20.4043 7.63052 20.4043 7.63052 20.4043C9.17132 21.8936 11.079 22.7128 13.2067 22.8617C13.2801 22.8617 13.3535 22.8617 13.4269 22.8617H13.5002C13.5736 22.8617 13.647 22.8617 13.7937 22.7872C15.9948 22.6383 17.9025 21.8192 19.5167 20.2553C19.7368 20.1064 19.8835 19.883 20.0303 19.734C21.4243 18.1702 22.2314 16.3085 22.3048 14.1489V14.0745C22.3048 12.2128 21.7912 10.5 20.764 9.08511C20.6906 8.93617 20.5439 8.71277 20.3971 8.48936C20.2504 8.34043 20.1036 8.11702 19.9569 7.96809C19.9569 7.89362 19.8835 7.89362 19.8102 7.89362C18.2694 6.40426 16.4351 5.58511 14.3073 5.43617C14.0872 5.58511 14.0138 5.58511 13.9405 5.58511ZM13.7937 0.37234C13.8671 0.37234 13.9405 0.37234 14.0872 0.37234C14.1606 0.37234 14.2339 0.37234 14.3807 0.37234C16.6552 0.446809 18.7096 1.04255 20.4705 2.08511C20.5439 2.15957 20.6906 2.23404 20.8373 2.30851C21.7912 2.82979 22.6716 3.57447 23.4787 4.39362C24.3592 5.28723 25.0929 6.25532 25.6799 7.2234C26.8538 9.30851 27.4408 11.617 27.3674 14.1489V14.2234C27.294 18.0213 25.8266 21.2979 22.9651 24.0532C22.0113 24.9468 20.9107 25.766 19.8102 26.3617C17.9025 27.4043 15.8481 27.9255 13.5736 28.0745C13.5002 28.0745 13.3535 28.0745 13.2801 28.0745C13.2067 28.0745 13.06 28.0745 12.9866 28.0745C10.7121 28 8.65772 27.4787 6.82344 26.3617C5.72287 25.766 4.69567 25.0213 3.81521 24.0532C2.93476 23.1596 2.27442 22.266 1.61408 21.2234C0.440136 19.1383 -0.146834 16.8298 -0.0734629 14.2234C0.0732796 10.4255 1.54071 7.14894 4.40218 4.39362C5.35601 3.5 6.45658 2.68085 7.55715 2.08511C9.4648 1.04255 11.5192 0.521277 13.7937 0.37234ZM37.1258 5.58511C36.6122 5.58511 36.0986 5.58511 35.585 5.58511C33.604 5.58511 32.43 5.58511 31.9898 5.58511C31.9164 5.58511 31.9164 5.58511 31.843 5.58511C31.1827 5.58511 30.5957 5.58511 30.0088 5.58511C29.2017 5.58511 28.3212 5.58511 27.5141 5.58511L30.8892 0.37234H56.1289L52.4604 5.58511C52.0935 5.58511 51.7267 5.58511 51.3598 5.58511C51.2131 5.58511 51.0663 5.58511 50.9929 5.58511C50.9196 5.58511 50.8462 5.58511 50.6995 5.58511C50.406 5.58511 50.1125 5.58511 49.8924 5.58511C49.4521 5.58511 48.9385 5.58511 48.4983 5.58511C48.3516 5.58511 48.2048 5.58511 48.0581 5.58511C47.838 5.58511 47.6912 5.58511 47.4711 5.58511C46.2238 5.58511 45.0499 5.58511 43.8026 5.58511C43.5824 11.6915 43.4357 17.7979 43.289 23.8298C43.289 23.9043 43.289 23.9787 43.289 24.0532L43.2156 27.2553H38.0796L38.6666 5.58511C38.153 5.58511 37.6394 5.58511 37.1258 5.58511ZM68.6754 0C68.8222 0 68.9689 0 69.0423 0C69.3358 0 69.7026 0 69.9961 0C71.5369 0 73.0043 0 74.4718 0C75.0587 0 75.6457 0 76.2327 0L76.0859 5.21277H71.6836C71.0233 5.21277 70.4363 5.21277 69.8494 5.21277C69.5559 5.21277 69.189 5.21277 68.8955 5.21277C68.7488 5.21277 68.6021 5.21277 68.4553 5.21277C66.1074 5.28723 64.053 6.18085 62.3655 7.74468C62.2188 7.89362 61.9986 8.11702 61.9253 8.26596C60.4578 9.82979 59.7241 11.6915 59.6508 13.8511C59.5774 16.0106 60.2377 17.8723 61.5584 19.4362C61.7052 19.6596 61.8519 19.8085 62.072 19.9574C62.1454 20.0319 62.1454 20.0319 62.1454 20.0319C63.7595 21.5957 65.7406 22.4149 68.0151 22.4894C68.9689 22.4894 69.9227 22.4894 70.8766 22.4894C70.9499 22.4894 71.0233 22.4894 71.0967 22.4894C71.17 22.4894 72.6375 22.4894 75.6457 22.4894L75.499 27.7021C74.6185 27.7021 73.6647 27.7021 72.7842 27.7021C72.4907 27.7021 72.1972 27.7021 71.9038 27.7021C71.6103 27.7021 71.3902 27.7021 71.0967 27.7021H71.0233C70.9499 27.7021 70.8766 27.7021 70.8032 27.7021C69.8494 27.7021 68.8955 27.7021 68.0151 27.7021C65.5938 27.6277 63.3927 27.1064 61.485 25.9894C60.3845 25.3192 59.4306 24.5745 58.4768 23.6809C57.5964 22.7872 56.8626 21.8191 56.2757 20.8511C55.0284 18.766 54.4414 16.4574 54.5148 13.8511C54.5881 10.0532 56.0556 6.7766 58.917 4.02128C59.8709 3.12766 60.9714 2.30851 62.072 1.71277C64.1264 0.670213 66.3275 0.0744681 68.6754 0Z" fill="#019690"/>
</g>
<defs>
<clipPath id="clip0">
<rect width="232" height="28" fill="white"/>
</clipPath>
</defs>
</svg>
