<svg width="77" height="29" viewBox="0 0 77 29" fill="none" xmlns="http://www.w3.org/2000/svg">
<path fill-rule="evenodd" clip-rule="evenodd" d="M14.02 5.58511C13.8733 5.58511 13.7999 5.58511 13.7266 5.58511C11.5254 5.73404 9.61776 6.55319 8.0036 8.11702C7.78348 8.26596 7.63674 8.48936 7.49 8.6383C6.02257 10.2021 5.28886 12.0638 5.21549 14.2234C5.14212 16.383 5.80246 18.2447 7.19651 19.8085C7.34325 20.0319 7.49 20.1809 7.63674 20.3298C7.63674 20.4043 7.71011 20.4043 7.71011 20.4043C9.25091 21.8936 11.1586 22.7128 13.2863 22.8617C13.3597 22.8617 13.4331 22.8617 13.5064 22.8617H13.5798C13.6532 22.8617 13.7266 22.8617 13.8733 22.7872C16.0744 22.6383 17.9821 21.8192 19.5963 20.2553C19.8164 20.1064 19.9631 19.883 20.1099 19.734C21.5039 18.1702 22.311 16.3085 22.3844 14.1489V14.0745C22.3844 12.2128 21.8708 10.5 20.8436 9.08511C20.7702 8.93617 20.6235 8.71277 20.4767 8.48936C20.33 8.34043 20.1832 8.11702 20.0365 7.96809C20.0365 7.89362 19.9631 7.89362 19.8897 7.89362C18.3489 6.40426 16.5147 5.58511 14.3869 5.43617C14.1668 5.58511 14.0934 5.58511 14.02 5.58511ZM13.8733 0.37234C13.9467 0.37234 14.02 0.37234 14.1668 0.37234C14.2402 0.37234 14.3135 0.37234 14.4603 0.37234C16.7348 0.446809 18.7892 1.04255 20.5501 2.08511C20.6235 2.15957 20.7702 2.23404 20.9169 2.30851C21.8708 2.82979 22.7512 3.57447 23.5583 4.39362C24.4388 5.28723 25.1725 6.25532 25.7594 7.2234C26.9334 9.30851 27.5204 11.617 27.447 14.1489V14.2234C27.3736 18.0213 25.9062 21.2979 23.0447 24.0532C22.0909 24.9468 20.9903 25.766 19.8897 26.3617C17.9821 27.4043 15.9277 27.9255 13.6532 28.0745C13.5798 28.0745 13.4331 28.0745 13.3597 28.0745C13.2863 28.0745 13.1396 28.0745 13.0662 28.0745C10.7917 28 8.73731 27.4787 6.90303 26.3617C5.80246 25.766 4.77526 25.0213 3.8948 24.0532C3.01435 23.1596 2.35401 22.266 1.69367 21.2234C0.519726 19.1383 -0.0672444 16.8298 0.00612691 14.2234C0.152869 10.4255 1.6203 7.14894 4.48177 4.39362C5.4356 3.5 6.53617 2.68085 7.63674 2.08511C9.54439 1.04255 11.5988 0.521277 13.8733 0.37234ZM37.2054 5.58511C36.6918 5.58511 36.1782 5.58511 35.6646 5.58511C33.6835 5.58511 32.5096 5.58511 32.0694 5.58511C31.996 5.58511 31.996 5.58511 31.9226 5.58511C31.2623 5.58511 30.6753 5.58511 30.0883 5.58511C29.2813 5.58511 28.4008 5.58511 27.5937 5.58511L30.9688 0.37234H56.2085L52.54 5.58511C52.1731 5.58511 51.8062 5.58511 51.4394 5.58511C51.2926 5.58511 51.1459 5.58511 51.0725 5.58511C50.9992 5.58511 50.9258 5.58511 50.779 5.58511C50.4856 5.58511 50.1921 5.58511 49.972 5.58511C49.5317 5.58511 49.0181 5.58511 48.5779 5.58511C48.4312 5.58511 48.2844 5.58511 48.1377 5.58511C47.9176 5.58511 47.7708 5.58511 47.5507 5.58511C46.3034 5.58511 45.1295 5.58511 43.8821 5.58511C43.662 11.6915 43.5153 17.7979 43.3685 23.8298C43.3685 23.9043 43.3685 23.9787 43.3685 24.0532L43.2952 27.2553H38.1592L38.7462 5.58511C38.2326 5.58511 37.719 5.58511 37.2054 5.58511ZM68.755 0C68.9018 0 69.0485 0 69.1219 0C69.4154 0 69.7822 0 70.0757 0C71.6165 0 73.0839 0 74.5513 0C75.1383 0 75.7253 0 76.3123 0L76.1655 5.21277H71.7632C71.1029 5.21277 70.5159 5.21277 69.9289 5.21277C69.6355 5.21277 69.2686 5.21277 68.9751 5.21277C68.8284 5.21277 68.6816 5.21277 68.5349 5.21277C66.187 5.28723 64.1326 6.18085 62.4451 7.74468C62.2983 7.89362 62.0782 8.11702 62.0049 8.26596C60.5374 9.82979 59.8037 11.6915 59.7303 13.8511C59.657 16.0106 60.3173 17.8723 61.638 19.4362C61.7847 19.6596 61.9315 19.8085 62.1516 19.9574C62.225 20.0319 62.225 20.0319 62.225 20.0319C63.8391 21.5957 65.8202 22.4149 68.0947 22.4894C69.0485 22.4894 70.0023 22.4894 70.9561 22.4894C71.0295 22.4894 71.1029 22.4894 71.1763 22.4894C71.2496 22.4894 72.7171 22.4894 75.7253 22.4894L75.5785 27.7021C74.6981 27.7021 73.7443 27.7021 72.8638 27.7021C72.5703 27.7021 72.2768 27.7021 71.9833 27.7021C71.6899 27.7021 71.4697 27.7021 71.1763 27.7021H71.1029C71.0295 27.7021 70.9561 27.7021 70.8828 27.7021C69.929 27.7021 68.9751 27.7021 68.0947 27.7021C65.6734 27.6277 63.4723 27.1064 61.5646 25.9894C60.4641 25.3192 59.5102 24.5745 58.5564 23.6809C57.6759 22.7872 56.9422 21.8191 56.3553 20.8511C55.108 18.766 54.521 16.4574 54.5944 13.8511C54.6677 10.0532 56.1352 6.7766 58.9966 4.02128C59.9505 3.12766 61.051 2.30851 62.1516 1.71277C64.206 0.670213 66.4071 0.0744681 68.755 0Z" fill="#019690"/>
</svg>
