<svg width="80" height="80" viewBox="0 0 80 80" fill="none" xmlns="http://www.w3.org/2000/svg">
<path d="M57.0412 19.2188C57.0376 19.2188 57.0339 19.2188 57.0303 19.2188C56.1975 19.2188 55.3989 19.5512 54.812 20.1427L36.8829 38.2116L30.1723 31.4005C29.5898 30.8094 28.7962 30.4742 27.9665 30.4688C27.9596 30.4688 27.9531 30.4688 27.9462 30.4688C27.1237 30.4688 26.3342 30.7931 25.7489 31.3717L13.7404 43.2467C12.5132 44.4603 12.5021 46.4389 13.7157 47.6661C14.327 48.2842 15.132 48.5939 15.9379 48.5938C16.7317 48.5938 17.5261 48.293 18.1351 47.6908L27.9175 38.017L34.6492 44.8494C35.2353 45.4442 36.0348 45.7797 36.8698 45.7811C36.8717 45.7811 36.8734 45.7811 36.8753 45.7811C37.7082 45.7811 38.5067 45.4486 39.0936 44.8572L57.0146 26.7961L61.829 31.7167C63.0365 32.9505 65.0148 32.9717 66.2482 31.7648C67.4818 30.5578 67.5034 28.5794 66.2965 27.3456L59.264 20.1581C58.6786 19.5602 57.8779 19.2217 57.0412 19.2188Z" fill="#00988A"/>
<path d="M76.875 37.8125C78.6009 37.8125 80 36.4134 80 34.6875V9.53125C80 7.80531 78.6009 6.40625 76.875 6.40625H43.125V3.125C43.125 1.39906 41.7259 0 40 0C38.2741 0 36.875 1.39906 36.875 3.125V6.40625H3.125C1.39906 6.40625 0 7.80531 0 9.53125V50.4688C0 57.3613 5.6075 62.9688 12.5 62.9688H36.875V73.75H27.5C25.7741 73.75 24.375 75.1491 24.375 76.875C24.375 78.6009 25.7741 80 27.5 80H52.3438C54.0697 80 55.4688 78.6009 55.4688 76.875C55.4688 75.1491 54.0697 73.75 52.3438 73.75H43.125V62.9688H67.5C74.3925 62.9688 80 57.3613 80 50.4688C80 48.7428 78.6009 47.3438 76.875 47.3438C75.1491 47.3438 73.75 48.7428 73.75 50.4688C73.75 53.915 70.9463 56.7188 67.5 56.7188H12.5C9.05375 56.7188 6.25 53.915 6.25 50.4688V12.6562H73.75V34.6875C73.75 36.4134 75.1491 37.8125 76.875 37.8125Z" fill="#C4C4C4"/>
</svg>
