<svg width="76" height="80" viewBox="0 0 76 76" fill="none" xmlns="http://www.w3.org/2000/svg">
<path fill-rule="evenodd" clip-rule="evenodd" d="M37.9999 0C50.1132 0 59.9686 9.85542 59.9686 21.9687C59.9686 29.4729 56.1858 36.1091 50.4281 40.0734C52.0429 40.6306 53.6183 41.294 55.1427 42.0663C54.0433 43.7223 53.2919 45.6224 52.9909 47.6657C48.5146 45.2873 43.4127 43.9374 37.9999 43.9374C20.3208 43.9374 5.93749 58.3207 5.93749 75.9998H0C0 65.8499 3.95272 56.307 11.1299 49.1298C15.2687 44.991 20.195 41.9271 25.57 40.0728C19.8135 36.1073 16.0312 29.4717 16.0312 21.9687C16.0312 9.85542 25.8866 0 37.9999 0ZM37.9999 5.93749C29.1604 5.93749 21.9687 13.1292 21.9687 21.9687C21.9687 30.8083 29.1604 37.9999 37.9999 37.9999C46.8395 37.9999 54.0311 30.8083 54.0311 21.9687C54.0311 13.1292 46.8395 5.93749 37.9999 5.93749Z" fill="#C4C4C4"/>
<path d="M73.3455 68.9712C72.3563 69.972 71.1856 70.7136 69.914 71.1653V75.9999H63.9765V71.1722C62.7102 70.7281 61.5447 69.9998 60.5596 69.0176C58.8386 67.3013 57.8906 65.0364 57.8906 62.6406V61.4531H63.8281V62.6406C63.8281 64.3204 65.2557 65.7392 66.9453 65.7392C68.6059 65.7392 70.0625 64.2618 70.0625 62.5774C70.0625 61.2826 68.6384 60.4013 65.6157 58.8322L65.5769 58.8119C63.2019 57.5786 58.7812 55.2831 58.7812 49.6755C58.7812 46.298 60.9388 43.4052 63.9765 42.2415V37.4062H69.914V42.2264C70.9108 42.5992 71.8298 43.1594 72.6184 43.8917C74.2245 45.3824 75.1093 47.4014 75.1093 49.5781V50.3203H69.1719V49.5781C69.1719 48.3587 68.0394 47.6299 66.9453 47.6299C65.7178 47.6299 64.7187 48.5477 64.7187 49.6755C64.7187 51.2648 65.458 52.0598 68.3131 53.5424L68.352 53.5627C70.0109 54.4238 71.726 55.3144 73.1234 56.5425C75.0322 58.2199 76 60.2505 76 62.5774C76 64.9692 75.0572 67.2398 73.3455 68.9712Z" fill="#00988A"/>
</svg>
