<svg width="68" height="80" viewBox="0 0 68 80" fill="none" xmlns="http://www.w3.org/2000/svg">
<path d="M67.5242 20.5985C67.4831 18.4387 67.4439 16.3982 67.4439 14.4243C67.4439 12.8778 66.1906 11.6241 64.6437 11.6241C52.6682 11.6241 43.5504 8.18243 35.9502 0.792878C34.863 -0.264479 33.1328 -0.264106 32.046 0.792878C24.4466 8.18243 15.3303 11.6241 3.35546 11.6241C1.809 11.6241 0.555256 12.8778 0.555256 14.4243C0.555256 16.3986 0.516427 18.4398 0.474984 20.6C0.0911688 40.7003 -0.434521 68.2285 33.081 79.8457C33.3781 79.9487 33.688 80.0002 33.9979 80.0002C34.3078 80.0002 34.6181 79.9487 34.9149 79.8457C68.433 68.2282 67.908 40.6992 67.5242 20.5985ZM33.9983 74.2284C5.25437 63.7867 5.68897 40.9127 6.07465 20.7068C6.0978 19.4941 6.1202 18.3188 6.13588 17.1666C17.3516 16.6932 26.3205 13.2945 33.9983 6.6061C41.6768 13.2945 50.6472 16.6936 61.8637 17.1666C61.8794 18.3184 61.9018 19.493 61.9249 20.705C62.3102 40.9116 62.7445 63.7863 33.9983 74.2284Z" fill="#C4C4C4"/>
<path d="M43.641 30.2726L30.1257 43.7872L24.3584 38.0199C23.2648 36.9267 21.4917 36.9267 20.3985 38.0199C19.305 39.1138 19.305 40.8865 20.3985 41.9801L28.1458 49.7273C28.6924 50.2739 29.4092 50.5472 30.1257 50.5472C30.8422 50.5472 31.559 50.2739 32.1056 49.7273L47.6005 34.2329C48.6944 33.1393 48.6944 31.3662 47.6009 30.273C46.5077 29.1794 44.7346 29.1791 43.641 30.2726Z" fill="#00988A"/>
</svg>
